<svg version="1.1" id="Layer_1" xmlns="http://www.w3.org/2000/svg" xmlns:xlink="http://www.w3.org/1999/xlink" x="0px" y="0px"
	 width="100%" viewBox="0 0 1128 574" enable-background="new 0 0 1128 574" xml:space="preserve">
<path fill="none" opacity="1.000000" stroke="#000000" stroke-linecap="round" stroke-linejoin="round" stroke-width="11.000000"
	d="
M479.500000,305.500000 
	C486.482117,306.089172 492.584625,302.584656 498.929535,300.755585 
	C510.781189,297.339081 522.585632,293.733734 534.488708,290.459015 
	C541.550354,288.516266 548.487915,286.126648 555.502747,284.009186 
	C566.659058,280.641479 577.823181,277.298950 589.002625,274.008942 
	C602.158081,270.137451 615.339233,266.353485 628.498474,262.494781 
	C644.338196,257.850098 660.158386,253.138351 676.002258,248.507797 
	C692.658813,243.639725 709.359497,238.921326 725.992126,233.973618 
	C740.696289,229.599548 755.289124,224.848801 770.013123,220.544846 
	C783.284302,216.665558 796.715332,213.333450 809.988342,209.460037 
	C828.867554,203.950592 847.659058,198.141052 866.502258,192.507553 
	C883.633240,187.385986 900.724304,182.142014 917.952148,177.328644 
	C926.472717,174.948044 934.909180,172.122498 943.523499,170.100204 
	C951.434265,168.243088 959.053711,164.619919 967.500000,165.500000 
"/>
<path fill="none" opacity="1.000000" stroke="#000000" stroke-linecap="round" stroke-linejoin="round" stroke-width="13.000000"
	d="
M423.500000,35.000000 
	C422.669495,43.153294 421.538147,51.246037 421.354584,59.496765 
	C421.094788,71.176186 420.131531,82.864220 418.927246,94.492462 
	C417.290375,110.297386 417.369202,126.185135 416.071655,142.005875 
	C414.747864,158.145996 414.448730,174.376862 412.885559,190.488892 
	C410.963898,210.296951 411.387634,230.224304 409.143036,250.016220 
	C408.262299,257.781921 409.134003,265.739044 407.500000,273.500000 
"/>
<path fill="none" opacity="1.000000" stroke="#000000" stroke-linecap="round" stroke-linejoin="round" stroke-width="13.000000"
	d="
M694.000000,313.000000 
	C691.547424,313.878113 689.002808,313.472046 686.499939,313.483826 
	C663.233337,313.593231 645.494019,324.292480 632.057312,342.542175 
	C617.680237,362.069061 613.953613,384.501556 616.658875,407.981689 
	C618.484985,423.831421 624.516052,438.297729 637.063293,448.925262 
	C647.480591,457.748596 659.870117,462.184570 673.494080,463.558807 
	C688.844727,465.107239 703.322388,461.735321 717.463196,456.402374 
	C720.581848,455.226196 723.465088,455.581024 726.500000,455.750000 
"/>
<path fill="none" opacity="1.000000" stroke="#000000" stroke-linecap="round" stroke-linejoin="round" stroke-width="10.000000"
	d="
M345.000000,355.999969 
	C324.666656,369.166656 304.290375,382.267609 284.011047,395.516876 
	C259.630951,411.445343 235.500534,427.762451 210.941025,443.407410 
	C194.677490,453.767639 178.636642,464.456207 162.422821,474.879944 
	C156.069626,478.964386 149.335709,482.706543 141.987289,484.958496 
	C141.248840,485.184814 140.333328,484.833344 139.500000,484.750031 
"/>
<path fill="none" opacity="1.000000" stroke="#000000" stroke-linecap="round" stroke-linejoin="round" stroke-width="6.000000"
	d="
M315.500000,341.000000 
	C308.244293,341.306671 301.412933,343.560120 294.488708,345.458832 
	C289.697906,346.772552 284.788361,347.664795 279.954468,348.807343 
	C271.971832,350.694153 263.962097,352.660645 255.949738,354.245972 
	C241.369797,357.130737 226.971268,360.715149 212.460861,363.816956 
	C198.725510,366.753082 185.048935,369.796082 171.485535,373.446259 
	C159.387680,376.701996 147.171722,379.520905 134.991440,382.464600 
	C133.889160,382.730988 132.666672,382.500000 131.500000,382.500000 
"/>
<path fill="none" opacity="1.000000" stroke="#000000" stroke-linecap="round" stroke-linejoin="round" stroke-width="4.000000"
	d="
M738.500000,148.500000 
	C733.626465,148.879364 729.134827,150.690216 725.038391,153.066162 
	C706.251404,163.962692 686.523010,173.053604 667.449829,183.407562 
	C640.982727,197.775284 614.170898,211.507996 587.496887,225.494080 
	C581.225342,228.782471 575.273865,232.714371 568.500000,235.000000 
"/>
<path fill="none" opacity="1.000000" stroke="#000000" stroke-linecap="round" stroke-linejoin="round" stroke-width="9.000000"
	d="
M329.500000,314.500000 
	C316.333344,314.333313 303.057312,315.158020 290.030731,313.721252 
	C276.995361,312.283508 263.989410,312.998993 250.994843,312.072418 
	C229.365051,310.530151 207.667999,310.943268 186.000381,310.482025 
	C184.664108,310.453583 183.333328,310.166656 182.000000,309.999969 
"/>
<path fill="none" opacity="1.000000" stroke="#000000" stroke-linecap="round" stroke-linejoin="round" stroke-width="15.000000"
	d="
M485.250000,455.500000 
	C486.007812,450.593994 484.503113,446.843781 481.180908,442.849548 
	C475.963867,436.577271 473.697693,428.436249 470.616547,420.952026 
	C460.791199,397.085815 450.868134,373.254059 441.896088,349.038513 
	C439.497101,342.563660 437.806580,335.665771 433.485901,330.010773 
	C431.906708,327.943939 430.257751,325.914246 428.476166,324.022461 
	C426.413513,321.832336 422.544342,321.726379 421.063843,324.040833 
	C418.651031,327.812744 416.503601,331.764374 416.486572,336.499939 
	C416.343353,376.333374 416.248932,416.167358 415.910950,455.999237 
	C415.860474,461.950562 418.656250,462.743591 424.512329,463.388092 
	C429.452484,463.931824 434.500000,463.500000 439.500000,463.500000 
"/>
<path fill="none" opacity="1.000000" stroke="#000000" stroke-linecap="round" stroke-linejoin="round" stroke-width="18.000000"
	d="
M550.500000,323.500000 
	C553.616028,328.387665 554.540649,333.774658 554.531311,339.500061 
	C554.470276,376.666595 554.500000,413.833344 554.500000,451.000000 
	C554.500000,459.533691 557.242737,462.460602 566.001831,462.968719 
	C569.323975,463.161407 572.666687,463.000000 576.000000,463.000000 
"/>
<path fill="none" opacity="1.000000" stroke="#000000" stroke-linecap="round" stroke-linejoin="round" stroke-width="12.000000"
	d="
M575.000000,315.000000 
	C569.777710,316.543915 564.242615,314.608490 558.893799,317.287964 
	C554.617737,319.429993 550.443481,321.891541 545.646301,323.450317 
	C539.517822,325.441650 536.905701,332.435913 534.498596,338.499420 
	C525.168823,362.000854 515.807617,385.489838 506.512604,409.004974 
	C502.769470,418.474762 499.480682,428.139221 495.358215,437.437134 
	C493.494293,441.641052 490.281952,445.358185 485.500000,447.000000 
"/>
<path fill="none" opacity="1.000000" stroke="#000000" stroke-linecap="round" stroke-linejoin="round" stroke-width="6.000000"
	d="
M782.000000,454.500000 
	C780.439941,457.939941 777.960388,460.313263 774.532532,462.063721 
	C767.785034,465.509369 761.508911,469.696991 757.009827,476.007019 
	C752.305603,482.604980 753.037964,490.084625 758.962830,495.540375 
	C768.031616,503.891296 779.248169,504.884125 790.490356,504.311096 
	C800.685730,503.791443 810.216248,500.319427 817.488281,492.489105 
	C822.001587,487.629242 825.928528,476.769684 820.536987,470.468384 
	C817.095886,466.446655 812.656677,464.046082 807.981079,462.044250 
	C801.724304,459.365448 795.462097,456.562469 788.956421,454.648041 
	C784.331177,453.287048 780.363647,451.341461 777.005554,448.100708 
	C776.664307,441.720795 782.437500,439.061737 785.000000,434.500000 
"/>
<path fill="none" opacity="1.000000" stroke="#000000" stroke-linecap="round" stroke-linejoin="round" stroke-width="6.000000"
	d="
M854.000000,416.000000 
	C870.706238,419.496124 884.569641,410.966309 891.985718,398.491516 
	C894.363464,394.491821 894.777527,390.007660 894.455078,385.503204 
	C894.173401,381.567444 888.409912,377.107819 884.499939,377.499420 
	C876.340088,378.316681 870.361877,382.664551 865.483154,388.987030 
	C855.578857,401.822388 851.505981,416.746338 850.088501,432.507965 
	C849.472656,439.355652 852.109680,448.672852 862.000000,452.000000 
"/>
<path fill="none" opacity="1.000000" stroke="#000000" stroke-linecap="round" stroke-linejoin="round" stroke-width="5.000000"
	d="
M492.500000,166.750000 
	C486.871216,172.151321 484.221893,179.415924 480.519135,186.010742 
	C471.460602,202.144547 462.467834,218.315552 453.512268,234.506790 
	C448.278290,243.969574 443.152405,253.492325 438.028717,263.015442 
	C437.643585,263.731232 437.666687,264.666656 437.500031,265.500000 
"/>
<path fill="none" opacity="1.000000" stroke="#000000" stroke-linecap="round" stroke-linejoin="round" stroke-width="16.000000"
	d="
M822.500000,389.000000 
	C821.600891,386.623444 821.057800,384.157623 819.543457,381.969940 
	C814.240906,374.309540 806.083069,374.369843 798.554871,378.597656 
	C784.397949,386.548218 775.720581,405.823212 778.012817,421.498108 
	C778.918823,427.693634 783.450500,433.842773 788.010010,434.421295 
	C793.395020,435.104523 798.712830,434.829254 803.519592,431.528534 
	C815.344055,423.408691 820.934692,411.705658 822.918457,397.988220 
	C823.316406,395.236511 822.666687,392.333344 822.500061,389.500000 
"/>
<path fill="none" opacity="1.000000" stroke="#000000" stroke-linecap="round" stroke-linejoin="round" stroke-width="5.000000"
	d="
M364.000000,374.000000 
	C351.937683,392.467804 339.162323,410.444611 326.640442,428.596863 
	C323.087494,433.747406 319.391449,438.609314 315.000000,443.000000 
"/>
<path fill="none" opacity="1.000000" stroke="#000000" stroke-linecap="round" stroke-linejoin="round" stroke-width="14.000000"
	d="
M930.500000,414.000000 
	C936.514465,413.737854 940.470642,411.211670 943.727722,405.632965 
	C948.176331,398.013428 953.733704,390.876465 960.548218,385.056458 
	C964.786865,381.436310 969.719666,380.008057 975.530273,381.370911 
	C978.978943,382.179779 979.784790,383.916595 980.057495,386.994904 
	C980.604309,393.166626 978.170776,398.570892 975.951904,403.980286 
	C971.276550,415.378418 966.195129,426.610931 961.587708,438.035370 
	C960.275024,441.290405 958.448792,444.629944 959.405945,448.523132 
	C959.570618,449.193024 958.500000,450.166656 958.000000,451.000000 
"/>
<path fill="none" opacity="1.000000" stroke="#000000" stroke-linecap="round" stroke-linejoin="round" stroke-width="5.000000"
	d="
M361.500000,284.500000 
	C358.216125,285.234406 356.561737,282.610718 354.520752,280.974121 
	C337.584503,267.393433 321.307953,252.990021 303.549286,240.430298 
	C300.718231,238.428055 297.899933,237.040192 294.500000,236.750000 
"/>
<path fill="none" opacity="1.000000" stroke="#000000" stroke-linecap="round" stroke-linejoin="round" stroke-width="5.000000"
	d="
M519.500000,220.000000 
	C514.650391,220.308899 512.165039,224.464386 509.133881,227.151062 
	C492.188904,242.170395 475.666687,257.666687 459.000000,273.000000 
"/>
<path fill="none" opacity="1.000000" stroke="#000000" stroke-linecap="round" stroke-linejoin="round" stroke-width="11.000000"
	d="
M350.000000,217.500000 
	C356.018829,219.987442 356.426331,226.324066 358.854401,231.074417 
	C363.839142,240.826660 368.118500,250.949066 372.448425,261.022186 
	C374.512543,265.824158 378.231171,269.950317 378.500000,275.500000 
"/>
<path fill="none" opacity="1.000000" stroke="#000000" stroke-linecap="round" stroke-linejoin="round" stroke-width="15.000000"
	d="
M694.000000,311.500000 
	C694.869324,314.454132 697.374268,313.872009 699.500977,313.981354 
	C701.871948,314.103210 704.154785,314.212830 706.526855,314.908295 
	C715.055847,317.408783 717.642456,320.639252 718.043518,329.498016 
	C718.315613,335.508362 719.000061,341.500000 719.500061,347.500000 
"/>
<path fill="none" opacity="1.000000" stroke="#000000" stroke-linecap="round" stroke-linejoin="round" stroke-width="15.000000"
	d="
M936.500000,380.000000 
	C936.541626,386.395264 935.390564,392.496552 933.117249,398.544067 
	C931.335144,403.284882 929.867554,408.184906 929.802063,413.497559 
	C929.768982,416.178192 927.606995,418.809082 926.511780,421.504791 
	C923.809143,428.156830 920.644531,434.683167 918.670227,441.548950 
	C917.172546,446.757202 914.931458,450.717468 910.000000,453.000000 
"/>
<path fill="none" opacity="1.000000" stroke="#000000" stroke-linecap="round" stroke-linejoin="round" stroke-width="5.000000"
	d="
M293.000000,286.000000 
	C303.036133,287.702271 312.945099,289.851868 322.533386,293.410034 
	C324.638672,294.191315 327.166656,293.833344 329.500000,294.000000 
"/>
<path fill="none" opacity="1.000000" stroke="#000000" stroke-linecap="round" stroke-linejoin="round" stroke-width="6.000000"
	d="
M891.000000,432.500000 
	C884.636414,443.209839 877.303894,452.470367 862.995422,451.572571 
	C862.430969,451.537140 861.765320,452.549347 862.000000,453.500000 
"/>
<path fill="none" opacity="1.000000" stroke="#000000" stroke-linecap="round" stroke-linejoin="round" stroke-width="5.000000"
	d="
M936.000000,382.000000 
	C929.724060,379.562988 924.520386,380.433899 919.893311,385.909882 
	C916.678772,389.714142 913.236877,393.311646 910.500000,397.500000 
"/>
<path fill="none" opacity="1.000000" stroke="#000000" stroke-linecap="round" stroke-linejoin="round" stroke-width="5.000000"
	d="
M985.500000,436.000000 
	C982.218384,439.549255 979.137268,443.246948 975.604004,446.609283 
	C970.638855,451.334229 965.480347,451.950897 959.500000,449.500000 
"/>
<path fill="none" opacity="1.000000" stroke="#000000" stroke-linecap="round" stroke-linejoin="round" stroke-width="11.000000"
	d="
M555.000000,459.000000 
	C548.009949,464.223969 539.884277,462.917877 532.000000,463.000000 
"/>
<path fill="none" opacity="1.000000" stroke="#000000" stroke-linecap="round" stroke-linejoin="round" stroke-width="3.000000"
	d="
M539.500000,252.000000 
	C536.745972,251.306198 535.057617,253.360764 532.993225,254.487564 
	C529.852478,256.201813 526.666687,257.833344 523.500000,259.500000 
"/>
</svg>